<svg width="183" height="183" viewBox="0 0 183 183" fill="none" xmlns="http://www.w3.org/2000/svg">
<path fill-rule="evenodd" clip-rule="evenodd" d="M182.252 103.252C181.934 105.731 181.517 108.179 181.005 110.591L72.4089 1.99463C74.8214 1.48254 77.269 1.06555 79.7477 0.747681L182.252 103.252ZM64.079 4.17981C66.4295 3.4425 68.8208 2.79736 71.2488 2.24878L180.751 111.751C180.203 114.179 179.558 116.57 178.82 118.921L64.079 4.17981ZM180.284 69.2844C181.145 72.7334 181.809 76.26 182.266 79.8513L103.149 0.734497C106.74 1.1908 110.267 1.85535 113.716 2.71558L180.284 69.2844ZM91.5 0C94.8947 0 98.2462 0.184814 101.545 0.545044L182.455 81.4551C182.815 84.7539 183 88.1052 183 91.5L183 91.7659L182.998 92.0989L90.9011 0.00195312C91.1006 0.000732422 91.3002 0 91.5 0ZM182.979 93.4939C182.917 96.3606 182.724 99.1948 182.405 101.991L81.0091 0.594849C83.8051 0.275635 86.6394 0.0825195 89.5062 0.0212402L182.979 93.4939ZM178.477 119.992C177.742 122.237 176.923 124.444 176.022 126.608L56.3918 6.97754C58.5565 6.07739 60.7631 5.25806 63.008 4.52307L178.477 119.992ZM42.2628 14.3636C44.3328 13.0396 46.4597 11.7965 48.6389 10.6389L172.361 134.361C171.203 136.54 169.96 138.667 168.636 140.737L42.2628 14.3636ZM55.3979 7.39783C53.4172 8.24927 51.4726 9.16858 49.567 10.1528L172.847 133.433C173.831 131.527 174.751 129.583 175.602 127.602L55.3979 7.39783ZM174.569 53.0846C176.687 57.655 178.438 62.4294 179.785 67.3706L115.629 3.21509C120.57 4.56238 125.345 6.31348 129.915 8.43054L174.569 53.0846ZM25.2678 28.3687C26.7484 26.8157 28.2831 25.3148 29.8689 23.8689L159.131 153.131C157.685 154.717 156.184 156.251 154.631 157.732L25.2678 28.3687ZM35.2933 19.2932C33.6894 20.5435 32.1283 21.8461 30.6125 23.1982L159.802 152.387C161.154 150.872 162.456 149.311 163.707 147.707L35.2933 19.2932ZM41.4044 14.9194C39.5876 16.1104 37.8157 17.3641 36.0919 18.6777L164.322 146.908C165.636 145.184 166.89 143.412 168.08 141.596L41.4044 14.9194ZM132.655 9.75537C150.147 18.5793 164.421 32.8529 173.245 50.3453L132.655 9.75537ZM0.0633392 88.0635C0.0212402 89.2039 0 90.3494 0 91.5C0 93.8054 0.0852661 96.0911 0.252823 98.3538L84.6463 182.747C86.909 182.915 89.1945 183 91.5 183C92.6506 183 93.7963 182.979 94.9366 182.937L0.0633392 88.0635ZM0.12326 86.709L96.291 182.877C98.9368 182.74 101.553 182.491 104.135 182.135L0.865219 78.8652C0.508621 81.447 0.259735 84.063 0.12326 86.709ZM1.0444 77.6301L105.37 181.956C107.935 181.565 110.465 181.069 112.955 180.47L2.52943 70.0444C1.93103 72.5349 1.43446 75.0649 1.0444 77.6301ZM0.379974 99.895L83.1049 182.62C79.4789 182.29 75.914 181.749 72.4227 181.009L1.99171 110.578C1.25121 107.086 0.709808 103.521 0.379974 99.895ZM2.39719 112.397L70.6029 180.603C66.327 179.604 62.1663 178.305 58.1444 176.73L6.27025 124.856C4.69495 120.834 3.39613 116.673 2.39719 112.397ZM55.7548 175.755L7.24545 127.245C16.5018 149.036 33.9644 166.499 55.7548 175.755ZM20.3623 33.948C21.7122 32.2814 23.1196 30.6632 24.5813 29.0964L153.904 158.419C152.337 159.88 150.719 161.288 149.052 162.638L20.3623 33.948ZM19.7333 34.7333L148.267 163.267C146.664 164.537 145.017 165.754 143.33 166.916L16.0845 39.6703C17.2465 37.9828 18.4636 36.3363 19.7333 34.7333ZM15.5119 40.5118L142.488 167.488C140.46 168.852 138.375 170.136 136.236 171.337L11.6631 46.7639C12.864 44.6252 14.1484 42.5398 15.5119 40.5118ZM11.1589 47.674L135.326 171.841C133.353 172.92 131.335 173.928 129.277 174.862L8.13759 53.7233C9.07182 51.6649 10.08 49.6475 11.1589 47.674ZM7.70082 54.7008L128.299 175.299C126.287 176.184 124.238 176.998 122.153 177.739L5.26085 60.8467C6.00179 58.7622 6.81615 56.7125 7.70082 54.7008ZM4.89528 61.8953L121.105 178.105C118.806 178.89 116.466 179.587 114.09 180.19L2.80965 68.9104C3.41319 66.5334 4.10977 64.1938 4.89528 61.8953Z" fill="url(#paint0_linear_22_69)" fill-opacity="0.5"/>
<defs>
<linearGradient id="paint0_linear_22_69" x1="44.2255" y1="31.7985" x2="104.315" y2="156.883" gradientUnits="userSpaceOnUse">
<stop stop-color="#EE5F29"/>
<stop offset="0.541181" stop-color="#2F89CE"/>
<stop offset="1" stop-opacity="0.26"/>
</linearGradient>
</defs>
</svg>
